<mxfile host="app.diagrams.net" agent="Mozilla/5.0 (Macintosh; Intel Mac OS X 10_15_7) AppleWebKit/605.1.15 (KHTML, like Gecko) Version/17.5 Safari/605.1.15" version="24.7.4">
  <diagram id="C5RBs43oDa-KdzZeNtuy" name="Page-1">
    <mxGraphModel dx="2190" dy="924" grid="1" gridSize="10" guides="1" tooltips="1" connect="1" arrows="1" fold="1" page="1" pageScale="1" pageWidth="827" pageHeight="1169" math="0" shadow="0">
      <root>
        <mxCell id="WIyWlLk6GJQsqaUBKTNV-0" />
        <mxCell id="WIyWlLk6GJQsqaUBKTNV-1" parent="WIyWlLk6GJQsqaUBKTNV-0" />
        <mxCell id="WIyWlLk6GJQsqaUBKTNV-3" value="START" style="rounded=1;whiteSpace=wrap;html=1;fontSize=12;glass=0;strokeWidth=1;shadow=0;fillColor=#f8cecc;strokeColor=#b85450;" parent="WIyWlLk6GJQsqaUBKTNV-1" vertex="1">
          <mxGeometry x="160" y="80" width="120" height="40" as="geometry" />
        </mxCell>
        <mxCell id="wudwTlKr6mDgTyAic-3c-4" value="" style="strokeWidth=2;html=1;shape=mxgraph.flowchart.annotation_2;align=left;labelPosition=right;pointerEvents=1;direction=west;rotation=0;fillColor=#dae8fc;strokeColor=#6c8ebf;" parent="WIyWlLk6GJQsqaUBKTNV-1" vertex="1">
          <mxGeometry x="130" y="70.02" width="30" height="49.98" as="geometry" />
        </mxCell>
        <mxCell id="wudwTlKr6mDgTyAic-3c-7" value="&lt;font style=&quot;font-size: 15px;&quot;&gt;function: &lt;b&gt;int _printf(const char *format, ...);&lt;/b&gt;&lt;/font&gt;" style="text;html=1;align=center;verticalAlign=middle;resizable=0;points=[];autosize=1;strokeColor=none;fillColor=none;" parent="WIyWlLk6GJQsqaUBKTNV-1" vertex="1">
          <mxGeometry x="-170" y="80.01" width="320" height="30" as="geometry" />
        </mxCell>
        <mxCell id="wudwTlKr6mDgTyAic-3c-9" value="initialize length to 0 to keep track of everything printed" style="rounded=0;whiteSpace=wrap;html=1;fillColor=#d5e8d4;strokeColor=#82b366;" parent="WIyWlLk6GJQsqaUBKTNV-1" vertex="1">
          <mxGeometry x="155" y="200" width="130" height="60" as="geometry" />
        </mxCell>
        <mxCell id="wudwTlKr6mDgTyAic-3c-12" value="&lt;font style=&quot;font-size: 15px;&quot;&gt;1st parameter:const char *format&lt;/font&gt;&lt;div style=&quot;font-size: 15px;&quot;&gt;&lt;font style=&quot;font-size: 15px;&quot;&gt;&amp;nbsp;&quot;format string&quot; &lt;br&gt;(!= &#39;\0&#39;)&lt;/font&gt;&lt;/div&gt;" style="shape=parallelogram;perimeter=parallelogramPerimeter;whiteSpace=wrap;html=1;fixedSize=1;fillColor=#dae8fc;strokeColor=#6c8ebf;" parent="WIyWlLk6GJQsqaUBKTNV-1" vertex="1">
          <mxGeometry x="70" y="320" width="250" height="120" as="geometry" />
        </mxCell>
        <mxCell id="wudwTlKr6mDgTyAic-3c-18" value="" style="endArrow=classic;html=1;rounded=0;" parent="WIyWlLk6GJQsqaUBKTNV-1" edge="1">
          <mxGeometry relative="1" as="geometry">
            <mxPoint x="219.5" y="120" as="sourcePoint" />
            <mxPoint x="220" y="200" as="targetPoint" />
          </mxGeometry>
        </mxCell>
        <mxCell id="wudwTlKr6mDgTyAic-3c-19" value="&lt;span style=&quot;font-size: 12px; background-color: rgb(251, 251, 251);&quot;&gt;return type: int&lt;/span&gt;" style="edgeLabel;resizable=0;html=1;;align=center;verticalAlign=middle;" parent="wudwTlKr6mDgTyAic-3c-18" connectable="0" vertex="1">
          <mxGeometry relative="1" as="geometry" />
        </mxCell>
        <mxCell id="wudwTlKr6mDgTyAic-3c-20" value="" style="endArrow=classic;html=1;rounded=0;exitX=0.5;exitY=1;exitDx=0;exitDy=0;entryX=0.561;entryY=0;entryDx=0;entryDy=0;entryPerimeter=0;" parent="WIyWlLk6GJQsqaUBKTNV-1" source="wudwTlKr6mDgTyAic-3c-9" target="wudwTlKr6mDgTyAic-3c-12" edge="1">
          <mxGeometry relative="1" as="geometry">
            <mxPoint x="120" y="280" as="sourcePoint" />
            <mxPoint x="188" y="310" as="targetPoint" />
          </mxGeometry>
        </mxCell>
        <mxCell id="wudwTlKr6mDgTyAic-3c-21" value="Label" style="edgeLabel;resizable=0;html=1;;align=center;verticalAlign=middle;" parent="wudwTlKr6mDgTyAic-3c-20" connectable="0" vertex="1">
          <mxGeometry relative="1" as="geometry" />
        </mxCell>
        <mxCell id="wudwTlKr6mDgTyAic-3c-22" value="" style="shape=table;startSize=0;container=1;collapsible=0;childLayout=tableLayout;fontSize=14;fillColor=#ffe6cc;strokeColor=#d79b00;" parent="WIyWlLk6GJQsqaUBKTNV-1" vertex="1">
          <mxGeometry x="650" y="270" width="159" height="260" as="geometry" />
        </mxCell>
        <mxCell id="wudwTlKr6mDgTyAic-3c-23" value="" style="shape=tableRow;horizontal=0;startSize=0;swimlaneHead=0;swimlaneBody=0;strokeColor=inherit;top=0;left=0;bottom=0;right=0;collapsible=0;dropTarget=0;fillColor=none;points=[[0,0.5],[1,0.5]];portConstraint=eastwest;fontSize=16;" parent="wudwTlKr6mDgTyAic-3c-22" vertex="1">
          <mxGeometry width="159" height="72" as="geometry" />
        </mxCell>
        <mxCell id="wudwTlKr6mDgTyAic-3c-24" value="print_str: %s" style="shape=partialRectangle;html=1;whiteSpace=wrap;connectable=0;strokeColor=inherit;overflow=hidden;fillColor=none;top=0;left=0;bottom=0;right=0;pointerEvents=1;fontSize=15;align=left;spacingLeft=5;" parent="wudwTlKr6mDgTyAic-3c-23" vertex="1">
          <mxGeometry width="159" height="72" as="geometry">
            <mxRectangle width="159" height="72" as="alternateBounds" />
          </mxGeometry>
        </mxCell>
        <mxCell id="wudwTlKr6mDgTyAic-3c-25" value="" style="shape=tableRow;horizontal=0;startSize=0;swimlaneHead=0;swimlaneBody=0;strokeColor=inherit;top=0;left=0;bottom=0;right=0;collapsible=0;dropTarget=0;fillColor=none;points=[[0,0.5],[1,0.5]];portConstraint=eastwest;fontSize=16;" parent="wudwTlKr6mDgTyAic-3c-22" vertex="1">
          <mxGeometry y="72" width="159" height="89" as="geometry" />
        </mxCell>
        <mxCell id="wudwTlKr6mDgTyAic-3c-26" value="&lt;font style=&quot;font-size: 16px;&quot;&gt;print_interger:&amp;nbsp;&lt;/font&gt;&lt;div style=&quot;font-size: 16px;&quot;&gt;&lt;font style=&quot;font-size: 16px;&quot;&gt;%d &amp;amp; %i&lt;/font&gt;&lt;/div&gt;" style="shape=partialRectangle;html=1;whiteSpace=wrap;connectable=0;strokeColor=inherit;overflow=hidden;fillColor=none;top=0;left=0;bottom=0;right=0;pointerEvents=1;fontSize=15;align=left;spacingLeft=5;" parent="wudwTlKr6mDgTyAic-3c-25" vertex="1">
          <mxGeometry width="159" height="89" as="geometry">
            <mxRectangle width="159" height="89" as="alternateBounds" />
          </mxGeometry>
        </mxCell>
        <mxCell id="wudwTlKr6mDgTyAic-3c-27" value="" style="shape=tableRow;horizontal=0;startSize=0;swimlaneHead=0;swimlaneBody=0;strokeColor=inherit;top=0;left=0;bottom=0;right=0;collapsible=0;dropTarget=0;fillColor=none;points=[[0,0.5],[1,0.5]];portConstraint=eastwest;fontSize=16;" parent="wudwTlKr6mDgTyAic-3c-22" vertex="1">
          <mxGeometry y="161" width="159" height="99" as="geometry" />
        </mxCell>
        <mxCell id="wudwTlKr6mDgTyAic-3c-28" value="print_char: %s" style="shape=partialRectangle;html=1;whiteSpace=wrap;connectable=0;strokeColor=inherit;overflow=hidden;fillColor=none;top=0;left=0;bottom=0;right=0;pointerEvents=1;fontSize=15;align=left;spacingLeft=5;" parent="wudwTlKr6mDgTyAic-3c-27" vertex="1">
          <mxGeometry width="159" height="99" as="geometry">
            <mxRectangle width="159" height="99" as="alternateBounds" />
          </mxGeometry>
        </mxCell>
        <mxCell id="wudwTlKr6mDgTyAic-3c-32" value="" style="endArrow=classic;html=1;rounded=0;exitX=1;exitY=0.5;exitDx=0;exitDy=0;" parent="WIyWlLk6GJQsqaUBKTNV-1" source="wudwTlKr6mDgTyAic-3c-12" edge="1">
          <mxGeometry width="50" height="50" relative="1" as="geometry">
            <mxPoint x="390" y="440" as="sourcePoint" />
            <mxPoint x="400" y="380" as="targetPoint" />
            <Array as="points">
              <mxPoint x="350" y="380" />
              <mxPoint x="400" y="380" />
            </Array>
          </mxGeometry>
        </mxCell>
        <mxCell id="C0NLJiasnSPHW5SzEGpx-5" value="" style="edgeStyle=orthogonalEdgeStyle;rounded=0;orthogonalLoop=1;jettySize=auto;html=1;" edge="1" parent="WIyWlLk6GJQsqaUBKTNV-1" source="wudwTlKr6mDgTyAic-3c-33" target="C0NLJiasnSPHW5SzEGpx-4">
          <mxGeometry relative="1" as="geometry" />
        </mxCell>
        <mxCell id="wudwTlKr6mDgTyAic-3c-33" value="&lt;font style=&quot;font-size: 15px;&quot;&gt;2nd parameter: &quot;...&quot; &lt;br&gt;a variadic function&amp;nbsp;&lt;/font&gt;" style="shape=parallelogram;perimeter=parallelogramPerimeter;whiteSpace=wrap;html=1;fixedSize=1;fillColor=#dae8fc;strokeColor=#6c8ebf;" parent="WIyWlLk6GJQsqaUBKTNV-1" vertex="1">
          <mxGeometry x="80" y="530" width="220" height="130" as="geometry" />
        </mxCell>
        <mxCell id="wudwTlKr6mDgTyAic-3c-34" value="" style="endArrow=classic;html=1;rounded=0;exitX=0.439;exitY=1.057;exitDx=0;exitDy=0;exitPerimeter=0;entryX=0.459;entryY=-0.031;entryDx=0;entryDy=0;entryPerimeter=0;" parent="WIyWlLk6GJQsqaUBKTNV-1" source="wudwTlKr6mDgTyAic-3c-12" target="wudwTlKr6mDgTyAic-3c-33" edge="1">
          <mxGeometry width="50" height="50" relative="1" as="geometry">
            <mxPoint x="170" y="450" as="sourcePoint" />
            <mxPoint x="230" y="450" as="targetPoint" />
          </mxGeometry>
        </mxCell>
        <mxCell id="wudwTlKr6mDgTyAic-3c-35" value="&lt;font style=&quot;font-size: 15px;&quot;&gt;format_type&lt;/font&gt;" style="rounded=0;whiteSpace=wrap;html=1;fillColor=#f8cecc;strokeColor=#b85450;" parent="WIyWlLk6GJQsqaUBKTNV-1" vertex="1">
          <mxGeometry x="400" y="350" width="120" height="60" as="geometry" />
        </mxCell>
        <mxCell id="wudwTlKr6mDgTyAic-3c-37" value="" style="endArrow=classic;html=1;rounded=0;exitX=1.033;exitY=0.617;exitDx=0;exitDy=0;exitPerimeter=0;entryX=0;entryY=0.5;entryDx=0;entryDy=0;" parent="WIyWlLk6GJQsqaUBKTNV-1" source="wudwTlKr6mDgTyAic-3c-35" target="wudwTlKr6mDgTyAic-3c-25" edge="1">
          <mxGeometry width="50" height="50" relative="1" as="geometry">
            <mxPoint x="510" y="540" as="sourcePoint" />
            <mxPoint x="640" y="390" as="targetPoint" />
            <Array as="points">
              <mxPoint x="620" y="390" />
            </Array>
          </mxGeometry>
        </mxCell>
        <mxCell id="wudwTlKr6mDgTyAic-3c-38" value="" style="endArrow=classic;html=1;rounded=0;entryX=0;entryY=0.5;entryDx=0;entryDy=0;exitX=1;exitY=0.5;exitDx=0;exitDy=0;" parent="WIyWlLk6GJQsqaUBKTNV-1" source="wudwTlKr6mDgTyAic-3c-35" target="wudwTlKr6mDgTyAic-3c-23" edge="1">
          <mxGeometry width="50" height="50" relative="1" as="geometry">
            <mxPoint x="510" y="540" as="sourcePoint" />
            <mxPoint x="560" y="490" as="targetPoint" />
          </mxGeometry>
        </mxCell>
        <mxCell id="wudwTlKr6mDgTyAic-3c-39" value="" style="endArrow=classic;html=1;rounded=0;exitX=1;exitY=0.75;exitDx=0;exitDy=0;entryX=-0.006;entryY=0.788;entryDx=0;entryDy=0;entryPerimeter=0;" parent="WIyWlLk6GJQsqaUBKTNV-1" source="wudwTlKr6mDgTyAic-3c-35" target="wudwTlKr6mDgTyAic-3c-27" edge="1">
          <mxGeometry width="50" height="50" relative="1" as="geometry">
            <mxPoint x="510" y="540" as="sourcePoint" />
            <mxPoint x="560" y="490" as="targetPoint" />
          </mxGeometry>
        </mxCell>
        <mxCell id="wudwTlKr6mDgTyAic-3c-40" value="no more characters&lt;div&gt;&amp;nbsp;in format string.&amp;nbsp;&lt;/div&gt;&lt;div&gt;nulll (&#39;\0&#39;)&lt;/div&gt;" style="rhombus;whiteSpace=wrap;html=1;fillColor=#1ba1e2;fontColor=#ffffff;strokeColor=#006EAF;" parent="WIyWlLk6GJQsqaUBKTNV-1" vertex="1">
          <mxGeometry x="-260" y="490" width="220" height="160" as="geometry" />
        </mxCell>
        <mxCell id="wudwTlKr6mDgTyAic-3c-41" value="return length" style="rounded=1;whiteSpace=wrap;html=1;fillColor=#fff2cc;strokeColor=#d6b656;" parent="WIyWlLk6GJQsqaUBKTNV-1" vertex="1">
          <mxGeometry x="-210" y="730" width="120" height="60" as="geometry" />
        </mxCell>
        <mxCell id="wudwTlKr6mDgTyAic-3c-43" value="" style="endArrow=classic;html=1;rounded=0;exitX=0.5;exitY=1;exitDx=0;exitDy=0;entryX=0.5;entryY=0;entryDx=0;entryDy=0;" parent="WIyWlLk6GJQsqaUBKTNV-1" source="wudwTlKr6mDgTyAic-3c-40" target="wudwTlKr6mDgTyAic-3c-41" edge="1">
          <mxGeometry width="50" height="50" relative="1" as="geometry">
            <mxPoint x="-30" y="610" as="sourcePoint" />
            <mxPoint x="20" y="560" as="targetPoint" />
          </mxGeometry>
        </mxCell>
        <mxCell id="wudwTlKr6mDgTyAic-3c-44" value="" style="endArrow=classic;html=1;rounded=0;exitX=0;exitY=0.5;exitDx=0;exitDy=0;entryX=0;entryY=0.5;entryDx=0;entryDy=0;" parent="WIyWlLk6GJQsqaUBKTNV-1" source="wudwTlKr6mDgTyAic-3c-12" target="wudwTlKr6mDgTyAic-3c-40" edge="1">
          <mxGeometry width="50" height="50" relative="1" as="geometry">
            <mxPoint x="-410" y="550" as="sourcePoint" />
            <mxPoint x="-320" y="550" as="targetPoint" />
            <Array as="points">
              <mxPoint x="-320" y="380" />
              <mxPoint x="-320" y="480" />
              <mxPoint x="-320" y="570" />
            </Array>
          </mxGeometry>
        </mxCell>
        <mxCell id="C0NLJiasnSPHW5SzEGpx-1" value="print_percent: %" style="shape=partialRectangle;html=1;whiteSpace=wrap;connectable=0;strokeColor=#d79b00;overflow=hidden;fillColor=#ffe6cc;top=0;left=0;bottom=0;right=0;pointerEvents=1;fontSize=15;align=left;spacingLeft=5;" vertex="1" parent="WIyWlLk6GJQsqaUBKTNV-1">
          <mxGeometry x="650" y="200" width="159" height="72" as="geometry">
            <mxRectangle width="159" height="72" as="alternateBounds" />
          </mxGeometry>
        </mxCell>
        <mxCell id="C0NLJiasnSPHW5SzEGpx-3" value="" style="endArrow=classic;html=1;rounded=0;" edge="1" parent="WIyWlLk6GJQsqaUBKTNV-1">
          <mxGeometry width="50" height="50" relative="1" as="geometry">
            <mxPoint x="520" y="380" as="sourcePoint" />
            <mxPoint x="650" y="250" as="targetPoint" />
          </mxGeometry>
        </mxCell>
        <mxCell id="C0NLJiasnSPHW5SzEGpx-7" value="" style="edgeStyle=orthogonalEdgeStyle;rounded=0;orthogonalLoop=1;jettySize=auto;html=1;" edge="1" parent="WIyWlLk6GJQsqaUBKTNV-1" source="C0NLJiasnSPHW5SzEGpx-4" target="C0NLJiasnSPHW5SzEGpx-6">
          <mxGeometry relative="1" as="geometry" />
        </mxCell>
        <mxCell id="C0NLJiasnSPHW5SzEGpx-4" value="&lt;font style=&quot;font-size: 16px;&quot;&gt;get_format_func((char *specifier) (va_list)) &amp;nbsp;&lt;/font&gt;" style="whiteSpace=wrap;html=1;fillColor=#e1d5e7;strokeColor=#9673a6;" vertex="1" parent="WIyWlLk6GJQsqaUBKTNV-1">
          <mxGeometry x="80" y="790" width="220" height="105" as="geometry" />
        </mxCell>
        <mxCell id="C0NLJiasnSPHW5SzEGpx-9" value="" style="edgeStyle=orthogonalEdgeStyle;rounded=0;orthogonalLoop=1;jettySize=auto;html=1;" edge="1" parent="WIyWlLk6GJQsqaUBKTNV-1" source="C0NLJiasnSPHW5SzEGpx-6" target="C0NLJiasnSPHW5SzEGpx-8">
          <mxGeometry relative="1" as="geometry">
            <Array as="points">
              <mxPoint x="310" y="1064" />
              <mxPoint x="310" y="1064" />
            </Array>
          </mxGeometry>
        </mxCell>
        <mxCell id="C0NLJiasnSPHW5SzEGpx-10" value="True" style="edgeLabel;html=1;align=center;verticalAlign=middle;resizable=0;points=[];" vertex="1" connectable="0" parent="C0NLJiasnSPHW5SzEGpx-9">
          <mxGeometry x="-0.1233" y="-1" relative="1" as="geometry">
            <mxPoint as="offset" />
          </mxGeometry>
        </mxCell>
        <mxCell id="C0NLJiasnSPHW5SzEGpx-12" value="" style="edgeStyle=orthogonalEdgeStyle;rounded=0;orthogonalLoop=1;jettySize=auto;html=1;" edge="1" parent="WIyWlLk6GJQsqaUBKTNV-1" source="C0NLJiasnSPHW5SzEGpx-6" target="C0NLJiasnSPHW5SzEGpx-11">
          <mxGeometry relative="1" as="geometry" />
        </mxCell>
        <mxCell id="C0NLJiasnSPHW5SzEGpx-13" value="False" style="edgeLabel;html=1;align=center;verticalAlign=middle;resizable=0;points=[];" vertex="1" connectable="0" parent="C0NLJiasnSPHW5SzEGpx-12">
          <mxGeometry x="-0.1914" y="-2" relative="1" as="geometry">
            <mxPoint as="offset" />
          </mxGeometry>
        </mxCell>
        <mxCell id="C0NLJiasnSPHW5SzEGpx-6" value="*specifier = &quot;c&quot;" style="rhombus;whiteSpace=wrap;html=1;fillColor=#d5e8d4;strokeColor=#82b366;" vertex="1" parent="WIyWlLk6GJQsqaUBKTNV-1">
          <mxGeometry x="115" y="987.5" width="150" height="152.5" as="geometry" />
        </mxCell>
        <mxCell id="C0NLJiasnSPHW5SzEGpx-8" value="print_char" style="whiteSpace=wrap;html=1;fillColor=#dae8fc;strokeColor=#6c8ebf;" vertex="1" parent="WIyWlLk6GJQsqaUBKTNV-1">
          <mxGeometry x="370" y="1033.75" width="120" height="60" as="geometry" />
        </mxCell>
        <mxCell id="C0NLJiasnSPHW5SzEGpx-11" value="*specifier = &quot;s&quot;" style="rhombus;whiteSpace=wrap;html=1;fillColor=#d5e8d4;strokeColor=#82b366;" vertex="1" parent="WIyWlLk6GJQsqaUBKTNV-1">
          <mxGeometry x="110" y="1240" width="160" height="163.75" as="geometry" />
        </mxCell>
        <mxCell id="C0NLJiasnSPHW5SzEGpx-14" value="" style="edgeStyle=orthogonalEdgeStyle;rounded=0;orthogonalLoop=1;jettySize=auto;html=1;" edge="1" parent="WIyWlLk6GJQsqaUBKTNV-1" target="C0NLJiasnSPHW5SzEGpx-16">
          <mxGeometry relative="1" as="geometry">
            <mxPoint x="265" y="1338.38" as="sourcePoint" />
            <Array as="points">
              <mxPoint x="310" y="1338.38" />
              <mxPoint x="310" y="1338.38" />
            </Array>
          </mxGeometry>
        </mxCell>
        <mxCell id="C0NLJiasnSPHW5SzEGpx-15" value="True" style="edgeLabel;html=1;align=center;verticalAlign=middle;resizable=0;points=[];" vertex="1" connectable="0" parent="C0NLJiasnSPHW5SzEGpx-14">
          <mxGeometry x="-0.1233" y="-1" relative="1" as="geometry">
            <mxPoint as="offset" />
          </mxGeometry>
        </mxCell>
        <mxCell id="C0NLJiasnSPHW5SzEGpx-16" value="print_str" style="whiteSpace=wrap;html=1;fillColor=#dae8fc;strokeColor=#6c8ebf;" vertex="1" parent="WIyWlLk6GJQsqaUBKTNV-1">
          <mxGeometry x="370" y="1308.13" width="120" height="60" as="geometry" />
        </mxCell>
        <mxCell id="C0NLJiasnSPHW5SzEGpx-26" value="" style="edgeStyle=orthogonalEdgeStyle;rounded=0;orthogonalLoop=1;jettySize=auto;html=1;" edge="1" parent="WIyWlLk6GJQsqaUBKTNV-1" source="C0NLJiasnSPHW5SzEGpx-17" target="C0NLJiasnSPHW5SzEGpx-11">
          <mxGeometry relative="1" as="geometry" />
        </mxCell>
        <mxCell id="C0NLJiasnSPHW5SzEGpx-17" value="*specifier = &quot;%&quot;" style="rhombus;whiteSpace=wrap;html=1;fillColor=#d5e8d4;strokeColor=#82b366;" vertex="1" parent="WIyWlLk6GJQsqaUBKTNV-1">
          <mxGeometry x="110" y="1510" width="160" height="163.75" as="geometry" />
        </mxCell>
        <mxCell id="C0NLJiasnSPHW5SzEGpx-21" value="" style="edgeStyle=orthogonalEdgeStyle;rounded=0;orthogonalLoop=1;jettySize=auto;html=1;exitX=0.5;exitY=1;exitDx=0;exitDy=0;" edge="1" parent="WIyWlLk6GJQsqaUBKTNV-1" source="C0NLJiasnSPHW5SzEGpx-11">
          <mxGeometry relative="1" as="geometry">
            <mxPoint x="189.5" y="1410" as="sourcePoint" />
            <mxPoint x="189.5" y="1510" as="targetPoint" />
          </mxGeometry>
        </mxCell>
        <mxCell id="C0NLJiasnSPHW5SzEGpx-22" value="False" style="edgeLabel;html=1;align=center;verticalAlign=middle;resizable=0;points=[];" vertex="1" connectable="0" parent="C0NLJiasnSPHW5SzEGpx-21">
          <mxGeometry x="-0.1914" y="-2" relative="1" as="geometry">
            <mxPoint as="offset" />
          </mxGeometry>
        </mxCell>
        <mxCell id="C0NLJiasnSPHW5SzEGpx-23" value="" style="edgeStyle=orthogonalEdgeStyle;rounded=0;orthogonalLoop=1;jettySize=auto;html=1;" edge="1" parent="WIyWlLk6GJQsqaUBKTNV-1" target="C0NLJiasnSPHW5SzEGpx-25">
          <mxGeometry relative="1" as="geometry">
            <mxPoint x="270" y="1592.1200000000001" as="sourcePoint" />
            <Array as="points">
              <mxPoint x="315" y="1592.1200000000001" />
              <mxPoint x="315" y="1592.1200000000001" />
            </Array>
          </mxGeometry>
        </mxCell>
        <mxCell id="C0NLJiasnSPHW5SzEGpx-24" value="True" style="edgeLabel;html=1;align=center;verticalAlign=middle;resizable=0;points=[];" vertex="1" connectable="0" parent="C0NLJiasnSPHW5SzEGpx-23">
          <mxGeometry x="-0.1233" y="-1" relative="1" as="geometry">
            <mxPoint as="offset" />
          </mxGeometry>
        </mxCell>
        <mxCell id="C0NLJiasnSPHW5SzEGpx-25" value="print_percent" style="whiteSpace=wrap;html=1;fillColor=#dae8fc;strokeColor=#6c8ebf;" vertex="1" parent="WIyWlLk6GJQsqaUBKTNV-1">
          <mxGeometry x="375" y="1561.8700000000001" width="120" height="60" as="geometry" />
        </mxCell>
        <mxCell id="C0NLJiasnSPHW5SzEGpx-33" value="" style="edgeStyle=orthogonalEdgeStyle;rounded=0;orthogonalLoop=1;jettySize=auto;html=1;" edge="1" parent="WIyWlLk6GJQsqaUBKTNV-1" source="C0NLJiasnSPHW5SzEGpx-27" target="C0NLJiasnSPHW5SzEGpx-17">
          <mxGeometry relative="1" as="geometry" />
        </mxCell>
        <mxCell id="C0NLJiasnSPHW5SzEGpx-27" value="*specifier = &quot;d&quot; || &quot;i&quot;" style="rhombus;whiteSpace=wrap;html=1;fillColor=#d5e8d4;strokeColor=#82b366;" vertex="1" parent="WIyWlLk6GJQsqaUBKTNV-1">
          <mxGeometry x="110" y="1766" width="160" height="163.75" as="geometry" />
        </mxCell>
        <mxCell id="C0NLJiasnSPHW5SzEGpx-28" value="" style="edgeStyle=orthogonalEdgeStyle;rounded=0;orthogonalLoop=1;jettySize=auto;html=1;exitX=0.5;exitY=1;exitDx=0;exitDy=0;" edge="1" parent="WIyWlLk6GJQsqaUBKTNV-1">
          <mxGeometry relative="1" as="geometry">
            <mxPoint x="190" y="1660" as="sourcePoint" />
            <mxPoint x="189.5" y="1766" as="targetPoint" />
          </mxGeometry>
        </mxCell>
        <mxCell id="C0NLJiasnSPHW5SzEGpx-29" value="False" style="edgeLabel;html=1;align=center;verticalAlign=middle;resizable=0;points=[];" vertex="1" connectable="0" parent="C0NLJiasnSPHW5SzEGpx-28">
          <mxGeometry x="-0.1914" y="-2" relative="1" as="geometry">
            <mxPoint as="offset" />
          </mxGeometry>
        </mxCell>
        <mxCell id="C0NLJiasnSPHW5SzEGpx-30" value="" style="edgeStyle=orthogonalEdgeStyle;rounded=0;orthogonalLoop=1;jettySize=auto;html=1;" edge="1" parent="WIyWlLk6GJQsqaUBKTNV-1">
          <mxGeometry relative="1" as="geometry">
            <mxPoint x="270" y="1846.95" as="sourcePoint" />
            <Array as="points">
              <mxPoint x="270" y="1848.82" />
            </Array>
            <mxPoint x="375" y="1848.82" as="targetPoint" />
          </mxGeometry>
        </mxCell>
        <mxCell id="C0NLJiasnSPHW5SzEGpx-31" value="True" style="edgeLabel;html=1;align=center;verticalAlign=middle;resizable=0;points=[];" vertex="1" connectable="0" parent="C0NLJiasnSPHW5SzEGpx-30">
          <mxGeometry x="-0.1233" y="-1" relative="1" as="geometry">
            <mxPoint as="offset" />
          </mxGeometry>
        </mxCell>
        <mxCell id="C0NLJiasnSPHW5SzEGpx-32" value="print_integer" style="whiteSpace=wrap;html=1;fillColor=#dae8fc;strokeColor=#6c8ebf;" vertex="1" parent="WIyWlLk6GJQsqaUBKTNV-1">
          <mxGeometry x="375" y="1817.8700000000001" width="120" height="60" as="geometry" />
        </mxCell>
        <mxCell id="C0NLJiasnSPHW5SzEGpx-35" value="" style="edgeStyle=orthogonalEdgeStyle;rounded=0;orthogonalLoop=1;jettySize=auto;html=1;exitX=0.5;exitY=1;exitDx=0;exitDy=0;" edge="1" parent="WIyWlLk6GJQsqaUBKTNV-1">
          <mxGeometry relative="1" as="geometry">
            <mxPoint x="190" y="1920" as="sourcePoint" />
            <mxPoint x="189.5" y="2026" as="targetPoint" />
          </mxGeometry>
        </mxCell>
        <mxCell id="C0NLJiasnSPHW5SzEGpx-36" value="False" style="edgeLabel;html=1;align=center;verticalAlign=middle;resizable=0;points=[];" vertex="1" connectable="0" parent="C0NLJiasnSPHW5SzEGpx-35">
          <mxGeometry x="-0.1914" y="-2" relative="1" as="geometry">
            <mxPoint as="offset" />
          </mxGeometry>
        </mxCell>
        <mxCell id="C0NLJiasnSPHW5SzEGpx-37" value="Return NULL" style="rounded=0;whiteSpace=wrap;html=1;fillColor=#fff2cc;strokeColor=#d6b656;" vertex="1" parent="WIyWlLk6GJQsqaUBKTNV-1">
          <mxGeometry x="130" y="2026" width="120" height="64" as="geometry" />
        </mxCell>
      </root>
    </mxGraphModel>
  </diagram>
</mxfile>
